<?xml version="1.0" encoding="utf-8"?>
<svg viewBox="142.722 229 196.299 196.299" xmlns="http://www.w3.org/2000/svg">
  <path d="M 142.722 229 L 152.07 229 L 152.07 238.348 L 142.722 238.348 L 142.722 229 Z M 152.07 229 L 161.417 229 L 161.417 238.348 L 152.07 238.348 L 152.07 229 Z M 161.417 229 L 170.765 229 L 170.765 238.348 L 161.417 238.348 L 161.417 229 Z M 170.765 229 L 180.112 229 L 180.112 238.348 L 170.765 238.348 L 170.765 229 Z M 180.112 229 L 189.46 229 L 189.46 238.348 L 180.112 238.348 L 180.112 229 Z M 189.46 229 L 198.807 229 L 198.807 238.348 L 189.46 238.348 L 189.46 229 Z M 198.807 229 L 208.155 229 L 208.155 238.348 L 198.807 238.348 L 198.807 229 Z M 217.503 229 L 226.85 229 L 226.85 238.348 L 217.503 238.348 L 217.503 229 Z M 236.198 229 L 245.545 229 L 245.545 238.348 L 236.198 238.348 L 236.198 229 Z M 245.545 229 L 254.893 229 L 254.893 238.348 L 245.545 238.348 L 245.545 229 Z M 254.893 229 L 264.241 229 L 264.241 238.348 L 254.893 238.348 L 254.893 229 Z M 273.588 229 L 282.936 229 L 282.936 238.348 L 273.588 238.348 L 273.588 229 Z M 282.936 229 L 292.283 229 L 292.283 238.348 L 282.936 238.348 L 282.936 229 Z M 292.283 229 L 301.631 229 L 301.631 238.348 L 292.283 238.348 L 292.283 229 Z M 301.631 229 L 310.978 229 L 310.978 238.348 L 301.631 238.348 L 301.631 229 Z M 310.978 229 L 320.326 229 L 320.326 238.348 L 310.978 238.348 L 310.978 229 Z M 320.326 229 L 329.674 229 L 329.674 238.348 L 320.326 238.348 L 320.326 229 Z M 329.674 229 L 339.021 229 L 339.021 238.348 L 329.674 238.348 L 329.674 229 Z M 142.722 238.348 L 152.07 238.348 L 152.07 247.695 L 142.722 247.695 L 142.722 238.348 Z M 198.807 238.348 L 208.155 238.348 L 208.155 247.695 L 198.807 247.695 L 198.807 238.348 Z M 236.198 238.348 L 245.545 238.348 L 245.545 247.695 L 236.198 247.695 L 236.198 238.348 Z M 245.545 238.348 L 254.893 238.348 L 254.893 247.695 L 245.545 247.695 L 245.545 238.348 Z M 273.588 238.348 L 282.936 238.348 L 282.936 247.695 L 273.588 247.695 L 273.588 238.348 Z M 329.674 238.348 L 339.021 238.348 L 339.021 247.695 L 329.674 247.695 L 329.674 238.348 Z M 142.722 247.695 L 152.07 247.695 L 152.07 257.043 L 142.722 257.043 L 142.722 247.695 Z M 161.417 247.695 L 170.765 247.695 L 170.765 257.043 L 161.417 257.043 L 161.417 247.695 Z M 170.765 247.695 L 180.112 247.695 L 180.112 257.043 L 170.765 257.043 L 170.765 247.695 Z M 180.112 247.695 L 189.46 247.695 L 189.46 257.043 L 180.112 257.043 L 180.112 247.695 Z M 198.807 247.695 L 208.155 247.695 L 208.155 257.043 L 198.807 257.043 L 198.807 247.695 Z M 217.503 247.695 L 226.85 247.695 L 226.85 257.043 L 217.503 257.043 L 217.503 247.695 Z M 226.85 247.695 L 236.198 247.695 L 236.198 257.043 L 226.85 257.043 L 226.85 247.695 Z M 245.545 247.695 L 254.893 247.695 L 254.893 257.043 L 245.545 257.043 L 245.545 247.695 Z M 273.588 247.695 L 282.936 247.695 L 282.936 257.043 L 273.588 257.043 L 273.588 247.695 Z M 292.283 247.695 L 301.631 247.695 L 301.631 257.043 L 292.283 257.043 L 292.283 247.695 Z M 301.631 247.695 L 310.978 247.695 L 310.978 257.043 L 301.631 257.043 L 301.631 247.695 Z M 310.978 247.695 L 320.326 247.695 L 320.326 257.043 L 310.978 257.043 L 310.978 247.695 Z M 329.674 247.695 L 339.021 247.695 L 339.021 257.043 L 329.674 257.043 L 329.674 247.695 Z M 142.722 257.043 L 152.07 257.043 L 152.07 266.39 L 142.722 266.39 L 142.722 257.043 Z M 161.417 257.043 L 170.765 257.043 L 170.765 266.39 L 161.417 266.39 L 161.417 257.043 Z M 170.765 257.043 L 180.112 257.043 L 180.112 266.39 L 170.765 266.39 L 170.765 257.043 Z M 180.112 257.043 L 189.46 257.043 L 189.46 266.39 L 180.112 266.39 L 180.112 257.043 Z M 198.807 257.043 L 208.155 257.043 L 208.155 266.39 L 198.807 266.39 L 198.807 257.043 Z M 217.503 257.043 L 226.85 257.043 L 226.85 266.39 L 217.503 266.39 L 217.503 257.043 Z M 226.85 257.043 L 236.198 257.043 L 236.198 266.39 L 226.85 266.39 L 226.85 257.043 Z M 254.893 257.043 L 264.241 257.043 L 264.241 266.39 L 254.893 266.39 L 254.893 257.043 Z M 273.588 257.043 L 282.936 257.043 L 282.936 266.39 L 273.588 266.39 L 273.588 257.043 Z M 292.283 257.043 L 301.631 257.043 L 301.631 266.39 L 292.283 266.39 L 292.283 257.043 Z M 301.631 257.043 L 310.978 257.043 L 310.978 266.39 L 301.631 266.39 L 301.631 257.043 Z M 310.978 257.043 L 320.326 257.043 L 320.326 266.39 L 310.978 266.39 L 310.978 257.043 Z M 329.674 257.043 L 339.021 257.043 L 339.021 266.39 L 329.674 266.39 L 329.674 257.043 Z M 142.722 266.39 L 152.07 266.39 L 152.07 275.738 L 142.722 275.738 L 142.722 266.39 Z M 161.417 266.39 L 170.765 266.39 L 170.765 275.738 L 161.417 275.738 L 161.417 266.39 Z M 170.765 266.39 L 180.112 266.39 L 180.112 275.738 L 170.765 275.738 L 170.765 266.39 Z M 180.112 266.39 L 189.46 266.39 L 189.46 275.738 L 180.112 275.738 L 180.112 266.39 Z M 198.807 266.39 L 208.155 266.39 L 208.155 275.738 L 198.807 275.738 L 198.807 266.39 Z M 217.503 266.39 L 226.85 266.39 L 226.85 275.738 L 217.503 275.738 L 217.503 266.39 Z M 245.545 266.39 L 254.893 266.39 L 254.893 275.738 L 245.545 275.738 L 245.545 266.39 Z M 273.588 266.39 L 282.936 266.39 L 282.936 275.738 L 273.588 275.738 L 273.588 266.39 Z M 292.283 266.39 L 301.631 266.39 L 301.631 275.738 L 292.283 275.738 L 292.283 266.39 Z M 301.631 266.39 L 310.978 266.39 L 310.978 275.738 L 301.631 275.738 L 301.631 266.39 Z M 310.978 266.39 L 320.326 266.39 L 320.326 275.738 L 310.978 275.738 L 310.978 266.39 Z M 329.674 266.39 L 339.021 266.39 L 339.021 275.738 L 329.674 275.738 L 329.674 266.39 Z M 142.722 275.738 L 152.07 275.738 L 152.07 285.085 L 142.722 285.085 L 142.722 275.738 Z M 198.807 275.738 L 208.155 275.738 L 208.155 285.085 L 198.807 285.085 L 198.807 275.738 Z M 226.85 275.738 L 236.198 275.738 L 236.198 285.085 L 226.85 285.085 L 226.85 275.738 Z M 236.198 275.738 L 245.545 275.738 L 245.545 285.085 L 236.198 285.085 L 236.198 275.738 Z M 245.545 275.738 L 254.893 275.738 L 254.893 285.085 L 245.545 285.085 L 245.545 275.738 Z M 254.893 275.738 L 264.241 275.738 L 264.241 285.085 L 254.893 285.085 L 254.893 275.738 Z M 273.588 275.738 L 282.936 275.738 L 282.936 285.085 L 273.588 285.085 L 273.588 275.738 Z M 329.674 275.738 L 339.021 275.738 L 339.021 285.085 L 329.674 285.085 L 329.674 275.738 Z M 142.722 285.085 L 152.07 285.085 L 152.07 294.433 L 142.722 294.433 L 142.722 285.085 Z M 152.07 285.085 L 161.417 285.085 L 161.417 294.433 L 152.07 294.433 L 152.07 285.085 Z M 161.417 285.085 L 170.765 285.085 L 170.765 294.433 L 161.417 294.433 L 161.417 285.085 Z M 170.765 285.085 L 180.112 285.085 L 180.112 294.433 L 170.765 294.433 L 170.765 285.085 Z M 180.112 285.085 L 189.46 285.085 L 189.46 294.433 L 180.112 294.433 L 180.112 285.085 Z M 189.46 285.085 L 198.807 285.085 L 198.807 294.433 L 189.46 294.433 L 189.46 285.085 Z M 198.807 285.085 L 208.155 285.085 L 208.155 294.433 L 198.807 294.433 L 198.807 285.085 Z M 217.503 285.085 L 226.85 285.085 L 226.85 294.433 L 217.503 294.433 L 217.503 285.085 Z M 236.198 285.085 L 245.545 285.085 L 245.545 294.433 L 236.198 294.433 L 236.198 285.085 Z M 254.893 285.085 L 264.241 285.085 L 264.241 294.433 L 254.893 294.433 L 254.893 285.085 Z M 273.588 285.085 L 282.936 285.085 L 282.936 294.433 L 273.588 294.433 L 273.588 285.085 Z M 282.936 285.085 L 292.283 285.085 L 292.283 294.433 L 282.936 294.433 L 282.936 285.085 Z M 292.283 285.085 L 301.631 285.085 L 301.631 294.433 L 292.283 294.433 L 292.283 285.085 Z M 301.631 285.085 L 310.978 285.085 L 310.978 294.433 L 301.631 294.433 L 301.631 285.085 Z M 310.978 285.085 L 320.326 285.085 L 320.326 294.433 L 310.978 294.433 L 310.978 285.085 Z M 320.326 285.085 L 329.674 285.085 L 329.674 294.433 L 320.326 294.433 L 320.326 285.085 Z M 329.674 285.085 L 339.021 285.085 L 339.021 294.433 L 329.674 294.433 L 329.674 285.085 Z M 245.545 294.433 L 254.893 294.433 L 254.893 303.781 L 245.545 303.781 L 245.545 294.433 Z M 254.893 294.433 L 264.241 294.433 L 264.241 303.781 L 254.893 303.781 L 254.893 294.433 Z M 142.722 303.781 L 152.07 303.781 L 152.07 313.128 L 142.722 313.128 L 142.722 303.781 Z M 152.07 303.781 L 161.417 303.781 L 161.417 313.128 L 152.07 313.128 L 152.07 303.781 Z M 161.417 303.781 L 170.765 303.781 L 170.765 313.128 L 161.417 313.128 L 161.417 303.781 Z M 170.765 303.781 L 180.112 303.781 L 180.112 313.128 L 170.765 313.128 L 170.765 303.781 Z M 198.807 303.781 L 208.155 303.781 L 208.155 313.128 L 198.807 313.128 L 198.807 303.781 Z M 217.503 303.781 L 226.85 303.781 L 226.85 313.128 L 217.503 313.128 L 217.503 303.781 Z M 226.85 303.781 L 236.198 303.781 L 236.198 313.128 L 226.85 313.128 L 226.85 303.781 Z M 236.198 303.781 L 245.545 303.781 L 245.545 313.128 L 236.198 313.128 L 236.198 303.781 Z M 245.545 303.781 L 254.893 303.781 L 254.893 313.128 L 245.545 313.128 L 245.545 303.781 Z M 254.893 303.781 L 264.241 303.781 L 264.241 313.128 L 254.893 313.128 L 254.893 303.781 Z M 264.241 303.781 L 273.588 303.781 L 273.588 313.128 L 264.241 313.128 L 264.241 303.781 Z M 292.283 303.781 L 301.631 303.781 L 301.631 313.128 L 292.283 313.128 L 292.283 303.781 Z M 301.631 303.781 L 310.978 303.781 L 310.978 313.128 L 301.631 313.128 L 301.631 303.781 Z M 310.978 303.781 L 320.326 303.781 L 320.326 313.128 L 310.978 313.128 L 310.978 303.781 Z M 329.674 303.781 L 339.021 303.781 L 339.021 313.128 L 329.674 313.128 L 329.674 303.781 Z M 142.722 313.128 L 152.07 313.128 L 152.07 322.476 L 142.722 322.476 L 142.722 313.128 Z M 152.07 313.128 L 161.417 313.128 L 161.417 322.476 L 152.07 322.476 L 152.07 313.128 Z M 170.765 313.128 L 180.112 313.128 L 180.112 322.476 L 170.765 322.476 L 170.765 313.128 Z M 189.46 313.128 L 198.807 313.128 L 198.807 322.476 L 189.46 322.476 L 189.46 313.128 Z M 208.155 313.128 L 217.503 313.128 L 217.503 322.476 L 208.155 322.476 L 208.155 313.128 Z M 226.85 313.128 L 236.198 313.128 L 236.198 322.476 L 226.85 322.476 L 226.85 313.128 Z M 236.198 313.128 L 245.545 313.128 L 245.545 322.476 L 236.198 322.476 L 236.198 313.128 Z M 254.893 313.128 L 264.241 313.128 L 264.241 322.476 L 254.893 322.476 L 254.893 313.128 Z M 282.936 313.128 L 292.283 313.128 L 292.283 322.476 L 282.936 322.476 L 282.936 313.128 Z M 292.283 313.128 L 301.631 313.128 L 301.631 322.476 L 292.283 322.476 L 292.283 313.128 Z M 301.631 313.128 L 310.978 313.128 L 310.978 322.476 L 301.631 322.476 L 301.631 313.128 Z M 329.674 313.128 L 339.021 313.128 L 339.021 322.476 L 329.674 322.476 L 329.674 313.128 Z M 142.722 322.476 L 152.07 322.476 L 152.07 331.823 L 142.722 331.823 L 142.722 322.476 Z M 152.07 322.476 L 161.417 322.476 L 161.417 331.823 L 152.07 331.823 L 152.07 322.476 Z M 170.765 322.476 L 180.112 322.476 L 180.112 331.823 L 170.765 331.823 L 170.765 322.476 Z M 198.807 322.476 L 208.155 322.476 L 208.155 331.823 L 198.807 331.823 L 198.807 322.476 Z M 217.503 322.476 L 226.85 322.476 L 226.85 331.823 L 217.503 331.823 L 217.503 322.476 Z M 236.198 322.476 L 245.545 322.476 L 245.545 331.823 L 236.198 331.823 L 236.198 322.476 Z M 245.545 322.476 L 254.893 322.476 L 254.893 331.823 L 245.545 331.823 L 245.545 322.476 Z M 273.588 322.476 L 282.936 322.476 L 282.936 331.823 L 273.588 331.823 L 273.588 322.476 Z M 310.978 322.476 L 320.326 322.476 L 320.326 331.823 L 310.978 331.823 L 310.978 322.476 Z M 320.326 322.476 L 329.674 322.476 L 329.674 331.823 L 320.326 331.823 L 320.326 322.476 Z M 329.674 322.476 L 339.021 322.476 L 339.021 331.823 L 329.674 331.823 L 329.674 322.476 Z M 170.765 331.823 L 180.112 331.823 L 180.112 341.171 L 170.765 341.171 L 170.765 331.823 Z M 180.112 331.823 L 189.46 331.823 L 189.46 341.171 L 180.112 341.171 L 180.112 331.823 Z M 217.503 331.823 L 226.85 331.823 L 226.85 341.171 L 217.503 341.171 L 217.503 331.823 Z M 236.198 331.823 L 245.545 331.823 L 245.545 341.171 L 236.198 341.171 L 236.198 331.823 Z M 245.545 331.823 L 254.893 331.823 L 254.893 341.171 L 245.545 341.171 L 245.545 331.823 Z M 282.936 331.823 L 292.283 331.823 L 292.283 341.171 L 282.936 341.171 L 282.936 331.823 Z M 292.283 331.823 L 301.631 331.823 L 301.631 341.171 L 292.283 341.171 L 292.283 331.823 Z M 301.631 331.823 L 310.978 331.823 L 310.978 341.171 L 301.631 341.171 L 301.631 331.823 Z M 152.07 341.171 L 161.417 341.171 L 161.417 350.519 L 152.07 350.519 L 152.07 341.171 Z M 161.417 341.171 L 170.765 341.171 L 170.765 350.519 L 161.417 350.519 L 161.417 341.171 Z M 170.765 341.171 L 180.112 341.171 L 180.112 350.519 L 170.765 350.519 L 170.765 341.171 Z M 198.807 341.171 L 208.155 341.171 L 208.155 350.519 L 198.807 350.519 L 198.807 341.171 Z M 208.155 341.171 L 217.503 341.171 L 217.503 350.519 L 208.155 350.519 L 208.155 341.171 Z M 217.503 341.171 L 226.85 341.171 L 226.85 350.519 L 217.503 350.519 L 217.503 341.171 Z M 226.85 341.171 L 236.198 341.171 L 236.198 350.519 L 226.85 350.519 L 226.85 341.171 Z M 236.198 341.171 L 245.545 341.171 L 245.545 350.519 L 236.198 350.519 L 236.198 341.171 Z M 254.893 341.171 L 264.241 341.171 L 264.241 350.519 L 254.893 350.519 L 254.893 341.171 Z M 273.588 341.171 L 282.936 341.171 L 282.936 350.519 L 273.588 350.519 L 273.588 341.171 Z M 301.631 341.171 L 310.978 341.171 L 310.978 350.519 L 301.631 350.519 L 301.631 341.171 Z M 329.674 341.171 L 339.021 341.171 L 339.021 350.519 L 329.674 350.519 L 329.674 341.171 Z M 217.503 350.519 L 226.85 350.519 L 226.85 359.866 L 217.503 359.866 L 217.503 350.519 Z M 226.85 350.519 L 236.198 350.519 L 236.198 359.866 L 226.85 359.866 L 226.85 350.519 Z M 236.198 350.519 L 245.545 350.519 L 245.545 359.866 L 236.198 359.866 L 236.198 350.519 Z M 245.545 350.519 L 254.893 350.519 L 254.893 359.866 L 245.545 359.866 L 245.545 350.519 Z M 254.893 350.519 L 264.241 350.519 L 264.241 359.866 L 254.893 359.866 L 254.893 350.519 Z M 273.588 350.519 L 282.936 350.519 L 282.936 359.866 L 273.588 359.866 L 273.588 350.519 Z M 292.283 350.519 L 301.631 350.519 L 301.631 359.866 L 292.283 359.866 L 292.283 350.519 Z M 320.326 350.519 L 329.674 350.519 L 329.674 359.866 L 320.326 359.866 L 320.326 350.519 Z M 329.674 350.519 L 339.021 350.519 L 339.021 359.866 L 329.674 359.866 L 329.674 350.519 Z M 142.722 359.866 L 152.07 359.866 L 152.07 369.214 L 142.722 369.214 L 142.722 359.866 Z M 152.07 359.866 L 161.417 359.866 L 161.417 369.214 L 152.07 369.214 L 152.07 359.866 Z M 161.417 359.866 L 170.765 359.866 L 170.765 369.214 L 161.417 369.214 L 161.417 359.866 Z M 170.765 359.866 L 180.112 359.866 L 180.112 369.214 L 170.765 369.214 L 170.765 359.866 Z M 180.112 359.866 L 189.46 359.866 L 189.46 369.214 L 180.112 369.214 L 180.112 359.866 Z M 189.46 359.866 L 198.807 359.866 L 198.807 369.214 L 189.46 369.214 L 189.46 359.866 Z M 198.807 359.866 L 208.155 359.866 L 208.155 369.214 L 198.807 369.214 L 198.807 359.866 Z M 236.198 359.866 L 245.545 359.866 L 245.545 369.214 L 236.198 369.214 L 236.198 359.866 Z M 273.588 359.866 L 282.936 359.866 L 282.936 369.214 L 273.588 369.214 L 273.588 359.866 Z M 282.936 359.866 L 292.283 359.866 L 292.283 369.214 L 282.936 369.214 L 282.936 359.866 Z M 292.283 359.866 L 301.631 359.866 L 301.631 369.214 L 292.283 369.214 L 292.283 359.866 Z M 301.631 359.866 L 310.978 359.866 L 310.978 369.214 L 301.631 369.214 L 301.631 359.866 Z M 142.722 369.214 L 152.07 369.214 L 152.07 378.561 L 142.722 378.561 L 142.722 369.214 Z M 198.807 369.214 L 208.155 369.214 L 208.155 378.561 L 198.807 378.561 L 198.807 369.214 Z M 226.85 369.214 L 236.198 369.214 L 236.198 378.561 L 226.85 378.561 L 226.85 369.214 Z M 236.198 369.214 L 245.545 369.214 L 245.545 378.561 L 236.198 378.561 L 236.198 369.214 Z M 254.893 369.214 L 264.241 369.214 L 264.241 378.561 L 254.893 378.561 L 254.893 369.214 Z M 264.241 369.214 L 273.588 369.214 L 273.588 378.561 L 264.241 378.561 L 264.241 369.214 Z M 282.936 369.214 L 292.283 369.214 L 292.283 378.561 L 282.936 378.561 L 282.936 369.214 Z M 292.283 369.214 L 301.631 369.214 L 301.631 378.561 L 292.283 378.561 L 292.283 369.214 Z M 310.978 369.214 L 320.326 369.214 L 320.326 378.561 L 310.978 378.561 L 310.978 369.214 Z M 320.326 369.214 L 329.674 369.214 L 329.674 378.561 L 320.326 378.561 L 320.326 369.214 Z M 142.722 378.561 L 152.07 378.561 L 152.07 387.909 L 142.722 387.909 L 142.722 378.561 Z M 161.417 378.561 L 170.765 378.561 L 170.765 387.909 L 161.417 387.909 L 161.417 378.561 Z M 170.765 378.561 L 180.112 378.561 L 180.112 387.909 L 170.765 387.909 L 170.765 378.561 Z M 180.112 378.561 L 189.46 378.561 L 189.46 387.909 L 180.112 387.909 L 180.112 378.561 Z M 198.807 378.561 L 208.155 378.561 L 208.155 387.909 L 198.807 387.909 L 198.807 378.561 Z M 226.85 378.561 L 236.198 378.561 L 236.198 387.909 L 226.85 387.909 L 226.85 378.561 Z M 254.893 378.561 L 264.241 378.561 L 264.241 387.909 L 254.893 387.909 L 254.893 378.561 Z M 301.631 378.561 L 310.978 378.561 L 310.978 387.909 L 301.631 387.909 L 301.631 378.561 Z M 310.978 378.561 L 320.326 378.561 L 320.326 387.909 L 310.978 387.909 L 310.978 378.561 Z M 320.326 378.561 L 329.674 378.561 L 329.674 387.909 L 320.326 387.909 L 320.326 378.561 Z M 142.722 387.909 L 152.07 387.909 L 152.07 397.256 L 142.722 397.256 L 142.722 387.909 Z M 161.417 387.909 L 170.765 387.909 L 170.765 397.256 L 161.417 397.256 L 161.417 387.909 Z M 170.765 387.909 L 180.112 387.909 L 180.112 397.256 L 170.765 397.256 L 170.765 387.909 Z M 180.112 387.909 L 189.46 387.909 L 189.46 397.256 L 180.112 397.256 L 180.112 387.909 Z M 198.807 387.909 L 208.155 387.909 L 208.155 397.256 L 198.807 397.256 L 198.807 387.909 Z M 217.503 387.909 L 226.85 387.909 L 226.85 397.256 L 217.503 397.256 L 217.503 387.909 Z M 226.85 387.909 L 236.198 387.909 L 236.198 397.256 L 226.85 397.256 L 226.85 387.909 Z M 254.893 387.909 L 264.241 387.909 L 264.241 397.256 L 254.893 397.256 L 254.893 387.909 Z M 273.588 387.909 L 282.936 387.909 L 282.936 397.256 L 273.588 397.256 L 273.588 387.909 Z M 282.936 387.909 L 292.283 387.909 L 292.283 397.256 L 282.936 397.256 L 282.936 387.909 Z M 320.326 387.909 L 329.674 387.909 L 329.674 397.256 L 320.326 397.256 L 320.326 387.909 Z M 142.722 397.256 L 152.07 397.256 L 152.07 406.604 L 142.722 406.604 L 142.722 397.256 Z M 161.417 397.256 L 170.765 397.256 L 170.765 406.604 L 161.417 406.604 L 161.417 397.256 Z M 170.765 397.256 L 180.112 397.256 L 180.112 406.604 L 170.765 406.604 L 170.765 397.256 Z M 180.112 397.256 L 189.46 397.256 L 189.46 406.604 L 180.112 406.604 L 180.112 397.256 Z M 198.807 397.256 L 208.155 397.256 L 208.155 406.604 L 198.807 406.604 L 198.807 397.256 Z M 217.503 397.256 L 226.85 397.256 L 226.85 406.604 L 217.503 406.604 L 217.503 397.256 Z M 226.85 397.256 L 236.198 397.256 L 236.198 406.604 L 226.85 406.604 L 226.85 397.256 Z M 245.545 397.256 L 254.893 397.256 L 254.893 406.604 L 245.545 406.604 L 245.545 397.256 Z M 254.893 397.256 L 264.241 397.256 L 264.241 406.604 L 254.893 406.604 L 254.893 397.256 Z M 264.241 397.256 L 273.588 397.256 L 273.588 406.604 L 264.241 406.604 L 264.241 397.256 Z M 273.588 397.256 L 282.936 397.256 L 282.936 406.604 L 273.588 406.604 L 273.588 397.256 Z M 310.978 397.256 L 320.326 397.256 L 320.326 406.604 L 310.978 406.604 L 310.978 397.256 Z M 142.722 406.604 L 152.07 406.604 L 152.07 415.952 L 142.722 415.952 L 142.722 406.604 Z M 198.807 406.604 L 208.155 406.604 L 208.155 415.952 L 198.807 415.952 L 198.807 406.604 Z M 217.503 406.604 L 226.85 406.604 L 226.85 415.952 L 217.503 415.952 L 217.503 406.604 Z M 226.85 406.604 L 236.198 406.604 L 236.198 415.952 L 226.85 415.952 L 226.85 406.604 Z M 236.198 406.604 L 245.545 406.604 L 245.545 415.952 L 236.198 415.952 L 236.198 406.604 Z M 254.893 406.604 L 264.241 406.604 L 264.241 415.952 L 254.893 415.952 L 254.893 406.604 Z M 264.241 406.604 L 273.588 406.604 L 273.588 415.952 L 264.241 415.952 L 264.241 406.604 Z M 273.588 406.604 L 282.936 406.604 L 282.936 415.952 L 273.588 415.952 L 273.588 406.604 Z M 282.936 406.604 L 292.283 406.604 L 292.283 415.952 L 282.936 415.952 L 282.936 406.604 Z M 329.674 406.604 L 339.021 406.604 L 339.021 415.952 L 329.674 415.952 L 329.674 406.604 Z M 142.722 415.952 L 152.07 415.952 L 152.07 425.299 L 142.722 425.299 L 142.722 415.952 Z M 152.07 415.952 L 161.417 415.952 L 161.417 425.299 L 152.07 425.299 L 152.07 415.952 Z M 161.417 415.952 L 170.765 415.952 L 170.765 425.299 L 161.417 425.299 L 161.417 415.952 Z M 170.765 415.952 L 180.112 415.952 L 180.112 425.299 L 170.765 425.299 L 170.765 415.952 Z M 180.112 415.952 L 189.46 415.952 L 189.46 425.299 L 180.112 425.299 L 180.112 415.952 Z M 189.46 415.952 L 198.807 415.952 L 198.807 425.299 L 189.46 425.299 L 189.46 415.952 Z M 198.807 415.952 L 208.155 415.952 L 208.155 425.299 L 198.807 425.299 L 198.807 415.952 Z M 217.503 415.952 L 226.85 415.952 L 226.85 425.299 L 217.503 425.299 L 217.503 415.952 Z M 236.198 415.952 L 245.545 415.952 L 245.545 425.299 L 236.198 425.299 L 236.198 415.952 Z M 245.545 415.952 L 254.893 415.952 L 254.893 425.299 L 245.545 425.299 L 245.545 415.952 Z M 254.893 415.952 L 264.241 415.952 L 264.241 425.299 L 254.893 425.299 L 254.893 415.952 Z M 264.241 415.952 L 273.588 415.952 L 273.588 425.299 L 264.241 425.299 L 264.241 415.952 Z M 273.588 415.952 L 282.936 415.952 L 282.936 425.299 L 273.588 425.299 L 273.588 415.952 Z M 292.283 415.952 L 301.631 415.952 L 301.631 425.299 L 292.283 425.299 L 292.283 415.952 Z M 310.978 415.952 L 320.326 415.952 L 320.326 425.299 L 310.978 425.299 L 310.978 415.952 Z" stroke="transparent" style="fill: rgb(255, 255, 255);"/>
</svg>